<svg width="38" height="50" viewBox="0 0 38 50" fill="none" xmlns="http://www.w3.org/2000/svg">
<mask id="mask0_401_2593" style="mask-type:alpha" maskUnits="userSpaceOnUse" x="2" y="2" width="34" height="46">
<path d="M2.08398 5.208C2.08398 3.48211 3.48309 2.08301 5.20898 2.08301H22.9173L35.4173 14.583V44.7913C35.4173 46.5172 34.0182 47.9163 32.2923 47.9163H5.20898C3.48309 47.9163 2.08398 46.5172 2.08398 44.7913V5.208Z" fill="black"/>
</mask>
<g mask="url(#mask0_401_2593)">
<path d="M2.08398 5.208C2.08398 3.48211 3.48309 2.08301 5.20898 2.08301H32.2923C34.0182 2.08301 35.4173 3.48212 35.4173 5.20801V44.7913C35.4173 46.5172 34.0182 47.9163 32.2923 47.9163H5.20898C3.48309 47.9163 2.08398 46.5172 2.08398 44.7913V5.208Z" fill="#0364D0"/>
<path d="M32.29 47.917C34.0159 47.917 35.415 46.5179 35.415 44.792V44.2705C35.415 45.9964 34.0159 47.3955 32.29 47.3955H5.20703C3.48121 47.3954 2.08203 45.9964 2.08203 44.2705V44.792C2.08205 46.5178 3.48122 47.9169 5.20703 47.917H32.29Z" fill="#0364D0"/>
<path d="M32.29 2.08301C34.0159 2.08301 35.415 3.48213 35.415 5.20801V5.72949C35.415 4.0036 34.0159 2.60449 32.29 2.60449H5.20703C3.48121 2.60457 2.08203 4.00365 2.08203 5.72949V5.20801C2.08205 3.48218 3.48122 2.08308 5.20703 2.08301H32.29Z" fill="#0364D0"/>
<path d="M22.916 2.08301L35.416 14.583H26.041C24.3151 14.583 22.916 13.1839 22.916 11.458V2.08301Z" fill="#4F92DE"/>
<path d="M11.8091 32.4795H9.75533V26.4189H11.8505C12.4522 26.4189 12.9691 26.5402 13.4012 26.7829C13.8352 27.0236 14.1686 27.3698 14.4014 27.8216C14.6342 28.2734 14.7506 28.8139 14.7506 29.4433C14.7506 30.0746 14.6332 30.6171 14.3984 31.0709C14.1656 31.5246 13.8293 31.8728 13.3893 32.1155C12.9513 32.3582 12.4246 32.4795 11.8091 32.4795ZM10.8532 31.5296H11.7558C12.178 31.5296 12.5301 31.4526 12.8123 31.2987C13.0944 31.1429 13.3065 30.9111 13.4485 30.6033C13.5906 30.2936 13.6616 29.9069 13.6616 29.4433C13.6616 28.9796 13.5906 28.5949 13.4485 28.2892C13.3065 27.9814 13.0964 27.7515 12.8182 27.5996C12.542 27.4458 12.1987 27.3688 11.7884 27.3688H10.8532V31.5296ZM21.2092 29.4492C21.2092 30.1022 21.0869 30.6615 20.8423 31.1271C20.5996 31.5907 20.2682 31.9458 19.848 32.1924C19.4297 32.439 18.9552 32.5624 18.4245 32.5624C17.8938 32.5624 17.4184 32.439 16.9982 32.1924C16.5799 31.9439 16.2485 31.5878 16.0038 31.1241C15.7612 30.6585 15.6399 30.1002 15.6399 29.4492C15.6399 28.7962 15.7612 28.2379 16.0038 27.7742C16.2485 27.3086 16.5799 26.9525 16.9982 26.7059C17.4184 26.4593 17.8938 26.336 18.4245 26.336C18.9552 26.336 19.4297 26.4593 19.848 26.7059C20.2682 26.9525 20.5996 27.3086 20.8423 27.7742C21.0869 28.2379 21.2092 28.7962 21.2092 29.4492ZM20.1054 29.4492C20.1054 28.9895 20.0334 28.6018 19.8894 28.2862C19.7473 27.9686 19.5501 27.7289 19.2975 27.5671C19.045 27.4033 18.754 27.3215 18.4245 27.3215C18.0951 27.3215 17.8041 27.4033 17.5516 27.5671C17.299 27.7289 17.1008 27.9686 16.9567 28.2862C16.8147 28.6018 16.7437 28.9895 16.7437 29.4492C16.7437 29.9089 16.8147 30.2975 16.9567 30.6151C17.1008 30.9308 17.299 31.1705 17.5516 31.3343C17.8041 31.496 18.0951 31.5769 18.4245 31.5769C18.754 31.5769 19.045 31.496 19.2975 31.3343C19.5501 31.1705 19.7473 30.9308 19.8894 30.6151C20.0334 30.2975 20.1054 29.9089 20.1054 29.4492ZM27.4348 28.4637H26.328C26.2965 28.2822 26.2383 28.1215 26.1534 27.9814C26.0686 27.8393 25.9631 27.719 25.8368 27.6204C25.7105 27.5217 25.5665 27.4477 25.4047 27.3984C25.2449 27.3471 25.0723 27.3215 24.8869 27.3215C24.5574 27.3215 24.2654 27.4043 24.0109 27.57C23.7564 27.7338 23.5572 27.9745 23.4131 28.2921C23.2691 28.6078 23.1971 28.9935 23.1971 29.4492C23.1971 29.9128 23.2691 30.3034 23.4131 30.6211C23.5591 30.9367 23.7584 31.1754 24.0109 31.3372C24.2654 31.497 24.5564 31.5769 24.8839 31.5769C25.0654 31.5769 25.2351 31.5532 25.3929 31.5059C25.5527 31.4566 25.6957 31.3846 25.822 31.2899C25.9502 31.1952 26.0578 31.0788 26.1446 30.9407C26.2333 30.8026 26.2945 30.6447 26.328 30.4672L27.4348 30.4731C27.3934 30.7611 27.3036 31.0314 27.1655 31.2839C27.0294 31.5365 26.8508 31.7594 26.6299 31.9527C26.4089 32.1441 26.1505 32.294 25.8546 32.4026C25.5586 32.5091 25.2301 32.5624 24.8691 32.5624C24.3364 32.5624 23.861 32.439 23.4427 32.1924C23.0245 31.9458 22.695 31.5897 22.4543 31.1241C22.2137 30.6585 22.0933 30.1002 22.0933 29.4492C22.0933 28.7962 22.2146 28.2379 22.4573 27.7742C22.7 27.3086 23.0304 26.9525 23.4487 26.7059C23.8669 26.4593 24.3404 26.336 24.8691 26.336C25.2065 26.336 25.5202 26.3834 25.8102 26.4781C26.1002 26.5728 26.3586 26.7119 26.5855 26.8953C26.8124 27.0768 26.9988 27.2998 27.1448 27.5641C27.2928 27.8265 27.3894 28.1264 27.4348 28.4637Z" fill="white"/>
</g>
</svg>
