<svg width="32" height="42" viewBox="0 0 32 42" fill="none" xmlns="http://www.w3.org/2000/svg">
<mask id="mask0_549_3459" style="mask-type:alpha" maskUnits="userSpaceOnUse" x="1" y="1" width="30" height="40">
<path d="M1.77832 4.875C1.77832 3.14911 3.17743 1.75 4.90332 1.75H19.5561L30.2228 12.25V37.125C30.2228 38.8509 28.8237 40.25 27.0978 40.25H4.90332C3.17743 40.25 1.77832 38.8509 1.77832 37.125V4.875Z" fill="black"/>
</mask>
<g mask="url(#mask0_549_3459)">
<path d="M4.90332 2.25H27.0977C28.5474 2.25 29.7227 3.42525 29.7227 4.875V37.125C29.7227 38.5747 28.5474 39.75 27.0977 39.75H4.90332C3.45357 39.75 2.27832 38.5747 2.27832 37.125V4.875C2.27832 3.42525 3.45357 2.25 4.90332 2.25Z" stroke="#13131B"/>
<path d="M27.5539 40.2505C29.0266 40.2505 30.2205 39.0752 30.2205 37.6255V37.1874C30.2205 38.6372 29.0266 39.8124 27.5539 39.8124H4.44303C2.97033 39.8124 1.77637 38.6371 1.77637 37.1874V37.6255C1.77638 39.0752 2.97034 40.2504 4.44303 40.2505H27.5539Z" fill="#13131B"/>
<path d="M27.5539 1.75C29.0266 1.75 30.2205 2.92527 30.2205 4.375V4.81305C30.2205 3.3633 29.0266 2.18805 27.5539 2.18805H4.44303C2.97033 2.18811 1.77637 3.36334 1.77637 4.81305V4.375C1.77638 2.9253 2.97034 1.75006 4.44303 1.75H27.5539Z" fill="#13131B"/>
<path d="M19.5546 1.75L30.2213 12.25H22.2213C20.7485 12.25 19.5546 11.0747 19.5546 9.625V1.75Z" fill="#13131B"/>
</g>
<path d="M22.2547 23.7892H21.4799C21.4578 23.6622 21.4171 23.5496 21.3577 23.4516C21.2983 23.3521 21.2245 23.2679 21.1361 23.1988C21.0477 23.1298 20.9469 23.078 20.8336 23.0435C20.7218 23.0076 20.6009 22.9896 20.4711 22.9896C20.2405 22.9896 20.0361 23.0476 19.858 23.1636C19.6798 23.2782 19.5403 23.4467 19.4395 23.6691C19.3387 23.89 19.2883 24.16 19.2883 24.479C19.2883 24.8036 19.3387 25.077 19.4395 25.2993C19.5417 25.5203 19.6812 25.6874 19.858 25.8006C20.0361 25.9125 20.2398 25.9684 20.469 25.9684C20.5961 25.9684 20.7149 25.9519 20.8253 25.9187C20.9372 25.8842 21.0373 25.8338 21.1257 25.7675C21.2155 25.7012 21.2907 25.6197 21.3515 25.5231C21.4136 25.4264 21.4565 25.3159 21.4799 25.1916L22.2547 25.1958C22.2257 25.3974 22.1628 25.5866 22.0662 25.7633C21.9709 25.9401 21.8459 26.0962 21.6912 26.2315C21.5366 26.3655 21.3556 26.4704 21.1485 26.5464C20.9413 26.6209 20.7114 26.6582 20.4587 26.6582C20.0858 26.6582 19.753 26.5719 19.4602 26.3993C19.1675 26.2267 18.9368 25.9774 18.7683 25.6515C18.5999 25.3256 18.5156 24.9347 18.5156 24.479C18.5156 24.0219 18.6006 23.6311 18.7704 23.3066C18.9403 22.9806 19.1716 22.7314 19.4644 22.5587C19.7571 22.3861 20.0886 22.2998 20.4587 22.2998C20.6948 22.2998 20.9144 22.3329 21.1174 22.3992C21.3204 22.4655 21.5013 22.5629 21.6602 22.6913C21.819 22.8184 21.9495 22.9744 22.0517 23.1595C22.1552 23.3431 22.2229 23.5531 22.2547 23.7892Z" fill="#13131B"/>
<path d="M17.8966 24.479C17.8966 24.9361 17.811 25.3276 17.6397 25.6536C17.4699 25.9781 17.2379 26.2267 16.9437 26.3993C16.6509 26.5719 16.3188 26.6582 15.9473 26.6582C15.5758 26.6582 15.243 26.5719 14.9489 26.3993C14.6561 26.2253 14.4241 25.976 14.2528 25.6515C14.083 25.3256 13.998 24.9347 13.998 24.479C13.998 24.0219 14.083 23.6311 14.2528 23.3066C14.4241 22.9806 14.6561 22.7314 14.9489 22.5587C15.243 22.3861 15.5758 22.2998 15.9473 22.2998C16.3188 22.2998 16.6509 22.3861 16.9437 22.5587C17.2379 22.7314 17.4699 22.9806 17.6397 23.3066C17.811 23.6311 17.8966 24.0219 17.8966 24.479ZM17.1239 24.479C17.1239 24.1572 17.0735 23.8859 16.9727 23.6649C16.8733 23.4426 16.7352 23.2748 16.5584 23.1615C16.3816 23.0469 16.178 22.9896 15.9473 22.9896C15.7167 22.9896 15.513 23.0469 15.3362 23.1615C15.1595 23.2748 15.0207 23.4426 14.9199 23.6649C14.8204 23.8859 14.7707 24.1572 14.7707 24.479C14.7707 24.8008 14.8204 25.0728 14.9199 25.2952C15.0207 25.5161 15.1595 25.6839 15.3362 25.7986C15.513 25.9118 15.7167 25.9684 15.9473 25.9684C16.178 25.9684 16.3816 25.9118 16.5584 25.7986C16.7352 25.6839 16.8733 25.5161 16.9727 25.2952C17.0735 25.0728 17.1239 24.8008 17.1239 24.479Z" fill="#13131B"/>
<path d="M11.3165 26.6003H9.87891V22.3579H11.3455C11.7667 22.3579 12.1286 22.4428 12.431 22.6127C12.7348 22.7812 12.9682 23.0236 13.1312 23.3398C13.2941 23.656 13.3756 24.0344 13.3756 24.475C13.3756 24.9169 13.2934 25.2967 13.1291 25.6143C12.9661 25.9319 12.7307 26.1757 12.4227 26.3455C12.1161 26.5154 11.7474 26.6003 11.3165 26.6003ZM10.6474 25.9354H11.2792C11.5748 25.9354 11.8213 25.8815 12.0188 25.7738C12.2162 25.6647 12.3647 25.5024 12.4641 25.287C12.5636 25.0702 12.6133 24.7995 12.6133 24.475C12.6133 24.1504 12.5636 23.8812 12.4641 23.6671C12.3647 23.4517 12.2176 23.2908 12.0229 23.1844C11.8296 23.0767 11.5893 23.0229 11.302 23.0229H10.6474V25.9354Z" fill="#13131B"/>
</svg>
