<svg width="181" height="40" viewBox="0 0 181 40" fill="none" xmlns="http://www.w3.org/2000/svg">
<path d="M32.84 20.4201L20.4201 8.00028L8.00028 20.4201L20.4201 32.84L32.84 20.4201V32.84H8V8H32.84V20.4201Z" fill="white"/>
<path d="M170.014 33.3349C168.765 33.3349 167.64 33.1125 166.64 32.6677C165.648 32.2144 164.861 31.5473 164.279 30.6664C163.706 29.7855 163.42 28.6993 163.42 27.4078C163.42 26.296 163.625 25.3765 164.035 24.6496C164.446 23.9226 165.006 23.341 165.716 22.9048C166.426 22.4686 167.226 22.1393 168.115 21.917C169.013 21.686 169.941 21.5193 170.899 21.4166C172.054 21.2969 172.99 21.19 173.708 21.0959C174.427 20.9933 174.949 20.8393 175.274 20.6341C175.607 20.4202 175.774 20.091 175.774 19.6462V19.5692C175.774 18.6028 175.487 17.8544 174.914 17.3242C174.341 16.7939 173.516 16.5288 172.438 16.5288C171.301 16.5288 170.399 16.7768 169.731 17.2728C169.073 17.7689 168.628 18.3548 168.397 19.0304L164.061 18.4146C164.403 17.2172 164.968 16.2166 165.754 15.4126C166.541 14.6001 167.503 13.9929 168.641 13.5909C169.779 13.1804 171.036 12.9751 172.413 12.9751C173.362 12.9751 174.307 13.0863 175.248 13.3087C176.189 13.531 177.048 13.8988 177.827 14.412C178.605 14.9166 179.229 15.6051 179.7 16.4774C180.179 17.3498 180.418 18.4403 180.418 19.7489V32.9371H175.954V30.2302H175.8C175.517 30.7776 175.12 31.2908 174.607 31.7697C174.102 32.2401 173.465 32.6207 172.695 32.9115C171.934 33.1937 171.04 33.3349 170.014 33.3349ZM171.22 29.9223C172.152 29.9223 172.96 29.7384 173.644 29.3707C174.329 28.9943 174.855 28.4983 175.222 27.8825C175.599 27.2667 175.787 26.5953 175.787 25.8683V23.5463C175.641 23.666 175.393 23.7772 175.043 23.8798C174.701 23.9824 174.316 24.0723 173.888 24.1492C173.46 24.2262 173.037 24.2946 172.618 24.3545C172.199 24.4144 171.835 24.4657 171.528 24.5084C170.835 24.6025 170.215 24.7565 169.667 24.9703C169.12 25.1841 168.688 25.4835 168.372 25.8683C168.055 26.2446 167.897 26.7321 167.897 27.3308C167.897 28.1861 168.209 28.8318 168.833 29.268C169.458 29.7042 170.253 29.9223 171.22 29.9223Z" fill="white"/>
<path d="M150.373 32.9384V13.2329H154.876V16.5172H155.081C155.44 15.3797 156.056 14.503 156.928 13.8872C157.809 13.2629 158.814 12.9507 159.943 12.9507C160.2 12.9507 160.486 12.9635 160.803 12.9892C161.128 13.0063 161.397 13.0362 161.611 13.079V17.3511C161.414 17.2826 161.102 17.2228 160.674 17.1715C160.255 17.1116 159.849 17.0816 159.456 17.0816C158.609 17.0816 157.848 17.2655 157.172 17.6333C156.505 17.9925 155.979 18.4928 155.594 19.1343C155.209 19.7758 155.017 20.5156 155.017 21.3537V32.9384H150.373Z" fill="white"/>
<path d="M135.298 33.3349C134.05 33.3349 132.925 33.1125 131.924 32.6677C130.932 32.2144 130.145 31.5473 129.564 30.6664C128.991 29.7855 128.704 28.6993 128.704 27.4078C128.704 26.296 128.909 25.3765 129.32 24.6496C129.73 23.9226 130.291 23.341 131.001 22.9048C131.71 22.4686 132.51 22.1393 133.4 21.917C134.298 21.686 135.226 21.5193 136.183 21.4166C137.338 21.2969 138.275 21.19 138.993 21.0959C139.711 20.9933 140.233 20.8393 140.558 20.6341C140.892 20.4202 141.059 20.091 141.059 19.6462V19.5692C141.059 18.6028 140.772 17.8544 140.199 17.3242C139.626 16.7939 138.801 16.5288 137.723 16.5288C136.585 16.5288 135.683 16.7768 135.016 17.2728C134.357 17.7689 133.913 18.3548 133.682 19.0304L129.346 18.4146C129.688 17.2172 130.252 16.2166 131.039 15.4126C131.826 14.6001 132.788 13.9929 133.926 13.5909C135.063 13.1804 136.32 12.9751 137.697 12.9751C138.647 12.9751 139.592 13.0863 140.533 13.3087C141.473 13.531 142.333 13.8988 143.111 14.412C143.889 14.9166 144.514 15.6051 144.984 16.4774C145.463 17.3498 145.703 18.4403 145.703 19.7489V32.9371H141.238V30.2302H141.084C140.802 30.7776 140.404 31.2908 139.891 31.7697C139.386 32.2401 138.749 32.6207 137.98 32.9115C137.218 33.1937 136.325 33.3349 135.298 33.3349ZM136.504 29.9223C137.436 29.9223 138.245 29.7384 138.929 29.3707C139.613 28.9943 140.139 28.4983 140.507 27.8825C140.883 27.2667 141.071 26.5953 141.071 25.8683V23.5463C140.926 23.666 140.678 23.7772 140.327 23.8798C139.985 23.9824 139.6 24.0723 139.173 24.1492C138.745 24.2262 138.322 24.2946 137.903 24.3545C137.483 24.4144 137.12 24.4657 136.812 24.5084C136.119 24.6025 135.499 24.7565 134.952 24.9703C134.404 25.1841 133.973 25.4835 133.656 25.8683C133.34 26.2446 133.181 26.7321 133.181 27.3308C133.181 28.1861 133.494 28.8318 134.118 29.268C134.742 29.7042 135.538 29.9223 136.504 29.9223Z" fill="white"/>
<path d="M125.744 13.2318V16.824H114.416V13.2318H125.744ZM117.212 8.51074H121.857V27.0103C121.857 27.6346 121.951 28.1136 122.139 28.4471C122.335 28.7721 122.592 28.9945 122.908 29.1142C123.225 29.234 123.576 29.2939 123.96 29.2939C124.251 29.2939 124.516 29.2725 124.756 29.2297C125.004 29.1869 125.192 29.1485 125.32 29.1142L126.103 32.7449C125.855 32.8304 125.5 32.9245 125.038 33.0271C124.585 33.1298 124.029 33.1896 123.37 33.2067C122.207 33.2409 121.159 33.0656 120.227 32.6807C119.295 32.2873 118.555 31.6801 118.008 30.859C117.469 30.0379 117.204 29.0116 117.212 27.78V8.51074Z" fill="white"/>
<path d="M98.5333 21.391V32.9371H93.8892V13.2317H98.328V16.5801H98.5589C99.0122 15.4768 99.7349 14.6001 100.727 13.9501C101.728 13.3001 102.964 12.9751 104.435 12.9751C105.795 12.9751 106.979 13.2659 107.988 13.8475C109.006 14.4291 109.793 15.2715 110.349 16.3748C110.913 17.4781 111.191 18.8166 111.183 20.3903V32.9371H106.539V21.1087C106.539 19.7916 106.197 18.761 105.512 18.0169C104.837 17.2728 103.9 16.9008 102.703 16.9008C101.89 16.9008 101.168 17.0804 100.535 17.4396C99.9103 17.7903 99.4185 18.2992 99.0593 18.9663C98.7086 19.6334 98.5333 20.4416 98.5333 21.391Z" fill="white"/>
<path d="M80.5052 33.322C78.5808 33.322 76.913 32.8987 75.5018 32.0519C74.0907 31.2052 72.9959 30.0207 72.2176 28.4983C71.4479 26.9759 71.063 25.1969 71.063 23.1614C71.063 21.1258 71.4479 19.3426 72.2176 17.8117C72.9959 16.2807 74.0907 15.0919 75.5018 14.2452C76.913 13.3985 78.5808 12.9751 80.5052 12.9751C82.4296 12.9751 84.0973 13.3985 85.5085 14.2452C86.9197 15.0919 88.0102 16.2807 88.78 17.8117C89.5582 19.3426 89.9474 21.1258 89.9474 23.1614C89.9474 25.1969 89.5582 26.9759 88.78 28.4983C88.0102 30.0207 86.9197 31.2052 85.5085 32.0519C84.0973 32.8987 82.4296 33.322 80.5052 33.322ZM80.5309 29.6016C81.5743 29.6016 82.4467 29.3151 83.148 28.742C83.8493 28.1605 84.371 27.3822 84.7131 26.4071C85.0638 25.4321 85.2391 24.3459 85.2391 23.1486C85.2391 21.9426 85.0638 20.8522 84.7131 19.8771C84.371 18.8936 83.8493 18.111 83.148 17.5294C82.4467 16.9478 81.5743 16.657 80.5309 16.657C79.4618 16.657 78.5723 16.9478 77.8624 17.5294C77.1611 18.111 76.6351 18.8936 76.2844 19.8771C75.9423 20.8522 75.7713 21.9426 75.7713 23.1486C75.7713 24.3459 75.9423 25.4321 76.2844 26.4071C76.6351 27.3822 77.1611 28.1605 77.8624 28.742C78.5723 29.3151 79.4618 29.6016 80.5309 29.6016Z" fill="white"/>
<path d="M52.3936 32.939V6.66504H69.2253V10.6549H57.1531V17.7879H68.0707V21.7777H57.1531V32.939H52.3936Z" fill="white"/>
</svg>
