<svg width="44" height="44" viewBox="0 0 44 44" fill="none" xmlns="http://www.w3.org/2000/svg">
<path d="M36.2998 14.9748V32.6711C36.2998 38.1161 33.0509 39.9311 29.0398 39.9311H14.5198C10.5086 39.9311 7.25977 38.1161 7.25977 32.6711V14.9748C7.25977 9.07609 10.5086 7.71484 14.5198 7.71484C14.5198 8.84014 14.9735 9.85654 15.7176 10.6007C16.4618 11.3448 17.4782 11.7986 18.6035 11.7986H24.956C27.2066 11.7986 29.0398 9.96544 29.0398 7.71484C33.0509 7.71484 36.2998 9.07609 36.2998 14.9748Z" stroke="#141414" stroke-width="2" stroke-linecap="round" stroke-linejoin="round"/>
<path d="M29.0395 7.71461C29.0395 9.96521 27.2064 11.7984 24.9558 11.7984H18.6033C17.478 11.7984 16.4615 11.3446 15.7174 10.6005C14.9732 9.8563 14.5195 8.83991 14.5195 7.71461C14.5195 5.46401 16.3527 3.63086 18.6033 3.63086H24.9558C26.0811 3.63086 27.0975 4.08462 27.8417 4.82877C28.5858 5.57292 29.0395 6.58931 29.0395 7.71461Z" stroke="#141414" stroke-width="2" stroke-linecap="round" stroke-linejoin="round"/>
<path d="M14.5195 23.5938H21.7795" stroke="#6E47CC" stroke-width="2" stroke-linecap="round" stroke-linejoin="round"/>
<path d="M14.5197 30.8555H29.0397" stroke="#6E47CC" stroke-width="2" stroke-linecap="round" stroke-linejoin="round"/>
</svg>
