<svg width="32" height="42" viewBox="0 0 32 42" fill="none" xmlns="http://www.w3.org/2000/svg">
<mask id="mask0_549_3458" style="mask-type:alpha" maskUnits="userSpaceOnUse" x="1" y="1" width="30" height="40">
<path d="M1.77832 4.875C1.77832 3.14911 3.17743 1.75 4.90332 1.75H19.5561L30.2228 12.25V37.125C30.2228 38.8509 28.8237 40.25 27.0978 40.25H4.90332C3.17743 40.25 1.77832 38.8509 1.77832 37.125V4.875Z" fill="black"/>
</mask>
<g mask="url(#mask0_549_3458)">
<path d="M4.90332 2.25H27.0977C28.5474 2.25 29.7227 3.42525 29.7227 4.875V37.125C29.7227 38.5747 28.5474 39.75 27.0977 39.75H4.90332C3.45357 39.75 2.27832 38.5747 2.27832 37.125V4.875C2.27832 3.42525 3.45357 2.25 4.90332 2.25Z" stroke="#13131B"/>
<path d="M27.5539 40.2505C29.0266 40.2505 30.2205 39.0752 30.2205 37.6255V37.1874C30.2205 38.6372 29.0266 39.8124 27.5539 39.8124H4.44303C2.97033 39.8124 1.77637 38.6371 1.77637 37.1874V37.6255C1.77638 39.0752 2.97034 40.2504 4.44303 40.2505H27.5539Z" fill="#13131B"/>
<path d="M27.5539 1.75C29.0266 1.75 30.2205 2.92527 30.2205 4.375V4.81305C30.2205 3.3633 29.0266 2.18805 27.5539 2.18805H4.44303C2.97033 2.18811 1.77637 3.36334 1.77637 4.81305V4.375C1.77638 2.9253 2.97034 1.75006 4.44303 1.75H27.5539Z" fill="#13131B"/>
<path d="M19.5546 1.75L30.2213 12.25H22.2213C20.7485 12.25 19.5546 11.0747 19.5546 9.625V1.75Z" fill="#13131B"/>
<path d="M9.70349 27.283V22.1921H11.6429C12.0402 22.1921 12.3735 22.265 12.6429 22.4108C12.9139 22.5567 13.1185 22.7572 13.2565 23.0124C13.3963 23.2659 13.4661 23.5543 13.4661 23.8774C13.4661 24.2039 13.3963 24.4939 13.2565 24.7475C13.1168 25.001 12.9106 25.2007 12.6378 25.3466C12.3651 25.4907 12.0292 25.5628 11.6303 25.5628H10.3449V24.8046H11.504C11.7363 24.8046 11.9266 24.7649 12.0747 24.6853C12.2229 24.6058 12.3323 24.4964 12.403 24.3572C12.4754 24.218 12.5116 24.0581 12.5116 23.8774C12.5116 23.6968 12.4754 23.5377 12.403 23.4002C12.3323 23.2626 12.222 23.1557 12.0722 23.0795C11.924 23.0016 11.733 22.9627 11.4989 22.9627H10.6404V27.283H9.70349Z" fill="#13131B"/>
<path d="M16.0324 27.283H14.2799V22.1921H16.0678C16.5812 22.1921 17.0223 22.294 17.391 22.4978C17.7614 22.7 18.0459 22.9908 18.2445 23.3703C18.4432 23.7498 18.5425 24.2039 18.5425 24.7326C18.5425 25.2629 18.4423 25.7186 18.242 26.0997C18.0433 26.4809 17.7563 26.7734 17.3809 26.9772C17.0072 27.1811 16.5577 27.283 16.0324 27.283ZM15.2167 26.485H15.987C16.3472 26.485 16.6477 26.4204 16.8885 26.2912C17.1292 26.1602 17.3102 25.9655 17.4314 25.707C17.5526 25.4468 17.6132 25.122 17.6132 24.7326C17.6132 24.3431 17.5526 24.02 17.4314 23.7631C17.3102 23.5046 17.1309 23.3115 16.8935 23.1839C16.6578 23.0546 16.3649 22.99 16.0147 22.99H15.2167V26.485Z" fill="#13131B"/>
<path d="M19.4327 27.283V22.1921H22.7458V22.9652H20.3695V24.3473H22.5185V25.1203H20.3695V27.283H19.4327Z" fill="#13131B"/>
</g>
</svg>
