<svg width="38" height="50" viewBox="0 0 38 50" fill="none" xmlns="http://www.w3.org/2000/svg">
<mask id="mask0_401_2375" style="mask-type:alpha" maskUnits="userSpaceOnUse" x="2" y="2" width="34" height="46">
<path d="M2.08398 5.208C2.08398 3.48211 3.48309 2.08301 5.20898 2.08301H22.9173L35.4173 14.583V44.7913C35.4173 46.5172 34.0182 47.9163 32.2923 47.9163H5.20898C3.48309 47.9163 2.08398 46.5172 2.08398 44.7913V5.208Z" fill="black"/>
</mask>
<g mask="url(#mask0_401_2375)">
<path d="M2.08398 5.208C2.08398 3.48211 3.48309 2.08301 5.20898 2.08301H32.2923C34.0182 2.08301 35.4173 3.48212 35.4173 5.20801V44.7913C35.4173 46.5172 34.0182 47.9163 32.2923 47.9163H5.20898C3.48309 47.9163 2.08398 46.5172 2.08398 44.7913V5.208Z" fill="#E01C12"/>
<path d="M32.29 47.917C34.0159 47.917 35.415 46.5179 35.415 44.792V44.2705C35.415 45.9964 34.0159 47.3955 32.29 47.3955H5.20703C3.48121 47.3954 2.08203 45.9964 2.08203 44.2705V44.792C2.08205 46.5178 3.48122 47.9169 5.20703 47.917H32.29Z" fill="#E01C12"/>
<path d="M32.29 2.08301C34.0159 2.08301 35.415 3.48213 35.415 5.20801V5.72949C35.415 4.0036 34.0159 2.60449 32.29 2.60449H5.20703C3.48121 2.60457 2.08203 4.00365 2.08203 5.72949V5.20801C2.08205 3.48218 3.48122 2.08308 5.20703 2.08301H32.29Z" fill="#E01C12"/>
<path d="M22.916 2.08301L35.416 14.583H26.041C24.3151 14.583 22.916 13.1839 22.916 11.458V2.08301Z" fill="#EF6966"/>
<path d="M11.3717 32.4795V26.4189H13.6444C14.11 26.4189 14.5006 26.5057 14.8163 26.6793C15.1339 26.8529 15.3736 27.0916 15.5354 27.3954C15.6992 27.6973 15.781 28.0406 15.781 28.4253C15.781 28.8139 15.6992 29.1592 15.5354 29.461C15.3717 29.7629 15.13 30.0006 14.8104 30.1742C14.4908 30.3459 14.0972 30.4317 13.6296 30.4317H12.1234V29.5291H13.4817C13.7539 29.5291 13.9769 29.4817 14.1505 29.387C14.3241 29.2923 14.4523 29.1621 14.5352 28.9964C14.62 28.8307 14.6624 28.6403 14.6624 28.4253C14.6624 28.2102 14.62 28.0208 14.5352 27.8571C14.4523 27.6933 14.3231 27.5661 14.1475 27.4753C13.9739 27.3826 13.75 27.3363 13.4757 27.3363H12.4696V32.4795H11.3717ZM18.7884 32.4795H16.7347V26.4189H18.8298C19.4315 26.4189 19.9484 26.5402 20.3805 26.7829C20.8145 27.0236 21.1479 27.3698 21.3807 27.8216C21.6135 28.2734 21.7299 28.8139 21.7299 29.4433C21.7299 30.0746 21.6125 30.6171 21.3778 31.0709C21.145 31.5246 20.8086 31.8728 20.3687 32.1155C19.9307 32.3582 19.4039 32.4795 18.7884 32.4795ZM17.8325 31.5296H18.7351C19.1573 31.5296 19.5095 31.4526 19.7916 31.2987C20.0737 31.1429 20.2858 30.9111 20.4278 30.6033C20.5699 30.2936 20.6409 29.9069 20.6409 29.4433C20.6409 28.9796 20.5699 28.5949 20.4278 28.2892C20.2858 27.9814 20.0757 27.7515 19.7975 27.5996C19.5213 27.4458 19.178 27.3688 18.7677 27.3688H17.8325V31.5296ZM22.7731 32.4795V26.4189H26.6556V27.3392H23.871V28.9846H26.3893V29.9049H23.871V32.4795H22.7731Z" fill="white"/>
</g>
</svg>
