<svg width="44" height="44" viewBox="0 0 44 44" fill="none" xmlns="http://www.w3.org/2000/svg">
<path d="M21.7772 21.7771C26.7887 21.7771 30.8513 17.7145 30.8513 12.703C30.8513 7.69151 26.7887 3.62891 21.7772 3.62891C16.7657 3.62891 12.7031 7.69151 12.7031 12.703C12.7031 17.7145 16.7657 21.7771 21.7772 21.7771Z" stroke="#141414" stroke-width="2" stroke-linecap="round" stroke-linejoin="round"/>
<path d="M6.18848 39.9264C6.18848 32.903 13.1755 27.2227 21.7777 27.2227C23.52 27.2227 25.2077 27.4586 26.7866 27.8941" stroke="#141414" stroke-width="2" stroke-linecap="round" stroke-linejoin="round"/>
<path d="M39.9267 32.6655C39.9267 33.2463 39.8541 33.8088 39.709 34.3533C39.5456 35.0792 39.2553 35.787 38.8742 36.404C37.6219 38.5092 35.3171 39.9248 32.6675 39.9248C30.7982 39.9248 29.1104 39.2169 27.84 38.0555C27.2956 37.5836 26.8237 37.0211 26.4608 36.404C25.7893 35.3151 25.4082 34.0266 25.4082 32.6655C25.4082 30.7055 26.1886 28.9089 27.459 27.6022C28.7838 26.2411 30.6349 25.4062 32.6675 25.4062C34.8089 25.4062 36.7508 26.3318 38.0575 27.82C39.2189 29.1085 39.9267 30.8144 39.9267 32.6655Z" stroke="#141414" stroke-width="2" stroke-miterlimit="10" stroke-linecap="round" stroke-linejoin="round"/>
<path d="M35.37 32.6309H29.9619" stroke="#6E47CC" stroke-width="2" stroke-miterlimit="10" stroke-linecap="round" stroke-linejoin="round"/>
<path d="M32.6663 29.9805V35.4067" stroke="#6E47CC" stroke-width="2" stroke-miterlimit="10" stroke-linecap="round" stroke-linejoin="round"/>
</svg>
